<?xml version="1.0" encoding="UTF-8"?>
<!DOCTYPE svg PUBLIC "-//W3C//DTD SVG 1.1//EN" "http://www.w3.org/Graphics/SVG/1.1/DTD/svg11.dtd">
<!-- Creator: CorelDRAW 2020 (64-Bit) -->
<svg xmlns="http://www.w3.org/2000/svg" xml:space="preserve" width="210mm" height="297mm" version="1.1" style="shape-rendering:geometricPrecision; text-rendering:geometricPrecision; image-rendering:optimizeQuality; fill-rule:evenodd; clip-rule:evenodd"
viewBox="0 0 21000 29700"
 xmlns:xlink="http://www.w3.org/1999/xlink"
 xmlns:xodm="http://www.corel.com/coreldraw/odm/2003">
 <defs>
  <style type="text/css">
   <![CDATA[
    .str0 {stroke:#FEFEFE;stroke-width:282.22;stroke-linecap:round;stroke-linejoin:round;stroke-miterlimit:22.9256}
    .fil1 {fill:#2B2A29;fill-rule:nonzero}
    .fil0 {fill:#F0EEDD;fill-rule:nonzero}
    .fil2 {fill:url(#id0);fill-rule:nonzero}
   ]]>
  </style>
  <linearGradient id="id0" gradientUnits="userSpaceOnUse" x1="-4364.14" y1="9242.75" x2="4618.3" y2="9242.75">
   <stop offset="0" style="stop-opacity:1; stop-color:#FECC00"/>
   <stop offset="1" style="stop-opacity:1; stop-color:#FF1E00"/>
  </linearGradient>
 </defs>
 <g id="Layer_x0020_1">
  <metadata id="CorelCorpID_0Corel-Layer"/>
  <path class="fil0" d="M2412.7 9889.99c-54.4,-98.83 -219.1,-112.6 -367.94,-30.78 -114.93,63.25 -186.38,165.17 -187.97,253.88l-0.37 0 18.52 1410.87 55.37 -0.68 -17.01 -1291.94c73.77,55.8 206.48,53.09 328.61,-14.04 148.71,-81.9 225.16,-228.39 170.79,-327.31z"/>
  <path class="fil0" d="M-2609.2 10761.39l-697.52 0 0 -94.68 697.52 0 0 94.68zm437.29 -1107.7c-41.53,-77.84 -170.15,-90.32 -287.27,-27.84 -90.58,48.3 -147.45,127.19 -149.6,196.49l-0.42 0 0 780.34 -697.52 0 0 -687.24c57.17,44.37 160.98,43.69 257.08,-7.53 117.17,-62.57 178.39,-176.36 136.97,-254.22 -41.65,-77.84 -170.18,-90.32 -287.35,-27.84 -90.56,48.3 -147.53,127.19 -149.68,196.49l-0.23 0 0 1103.36 0.42 0 0 0.68 783.92 0 0 -164.99 -0.28 0 0 -94.68 0.28 0 0 -64.03 -0.28 0 0 -687.24c57.12,44.37 161.01,43.69 257.06,-7.53 117.13,-62.57 178.43,-176.36 136.9,-254.22z"/>
  <path class="fil0" d="M4991.1 8341.66l0 -150.55 875.63 -291.95 0 154.94 -875.63 287.56zm-992.1 325.82l0 -145.58 934.22 -311.46 0 150.21 -934.22 306.83zm1925.58 -632.37l0 -250.7 0.73 -122.9 -934.21 306.79 0 -1.98 -1.91 2.7 -1048.33 344.17 0 228.08 0.29 -0.08 0 145.25 -0.29 0.07 0 112.28 0.29 -0.08 0 850.34c-76.57,-59.38 -215.45,-58.48 -344.2,10.15 -156.86,83.69 -238.87,236.01 -183.33,340.25 55.65,104.39 227.84,121.04 384.75,37.38 121.23,-64.7 197.47,-170.27 200.31,-263.09l0.32 0 0 -994.35 934.22 -311.46 0 851.22c-76.58,-59.42 -215.46,-58.55 -344.24,10.19 -156.91,83.66 -239.01,236.01 -183.35,340.25 55.7,104.36 227.84,121.01 384.76,37.22 121.22,-64.62 197.42,-170.2 200.26,-262.96l0.45 0 0 -995.26 875.63 -291.97 0 887.27c-76.57,-59.39 -215.54,-58.45 -344.24,10.18 -156.91,83.71 -238.92,236.02 -183.33,340.28 55.7,104.29 227.87,121.05 384.7,37.31 121.23,-64.62 197.47,-170.24 200.32,-263.09l0.4 0 0 -1075.97 0.73 -57.77 -0.73 0.28z"/>
  <path class="fil0" d="M-5994.54 10080.18c-289.66,-369.74 -43.13,-899.63 369.75,-1096.83 92.29,-44.12 194.43,-98.41 297,-161.05 4.79,164.94 7.48,341.52 8.44,520.4 -79.3,16.82 -159.3,53.26 -236.38,109.27 -2.96,2.06 -296.48,213.15 -99.55,513.75 0,0 72.88,90.92 211.91,83.46 0,0 -198.58,-91.81 -144,-345.08 24.35,-112.89 139.46,-178.22 268.34,-181.95 -0.13,263.61 -3.26,522.99 -7.22,747.23 -242.08,42.11 -526.12,-7.61 -668.29,-189.2zm782.6 -1860.99c30.8,-363.55 338.56,-640.99 338.56,-640.99 21.86,64.19 36.1,147.34 21.97,245.69 -26.84,187.4 -149.97,381.03 -360.53,572.06l0 -176.76zm289.93 1604.12c22.91,89.25 13.23,166.51 -18.63,232.14 -49.25,83.09 -149.45,147.25 -271.3,186.06l0 -708.18c126.82,30.18 246.95,122.32 289.93,289.98zm-11.46 -390.08c-83.56,-66.03 -179.08,-99.17 -278.47,-100.43l0 -584.91c314.27,-212.58 598.61,-498.96 573.09,-806.01 -37.04,-443.65 -294.66,-548.11 -294.66,-548.11l-12.92 5.51c-18.4,7.92 -449.12,204.29 -395.92,1082.06 0.45,7.66 0.96,15.47 1.35,23.15 -89.48,69.71 -190.59,138.9 -302.98,206.89 -527.19,319.31 -779.78,744.61 -675.75,1137.62 79.54,300.52 363.04,508.72 703.35,517.78 5.86,0.84 131.81,16.74 288.38,-1.26 -6.5,336.44 -14.19,571.6 -14.35,578.2 0.08,3.3 8.77,334.89 -318.65,403.52 -87.89,18.37 -172.25,15.34 -248.53,-5.08 -91.03,-49.13 -122.76,-127.52 -127.83,-203.76 33.95,16.65 72,26.26 112.36,26.26 140.79,0 254.93,-114.07 254.93,-254.84 0,-125.43 -90.79,-229.43 -210.04,-250.71 -135.36,-30.61 -294.58,25.85 -348.55,198.39 -44.68,143.06 -15.29,285.65 80.58,391.32 74.83,82.29 179.39,132.39 296.75,146.49 -6.98,0.51 -10.71,0.59 -10.71,0.59 224.87,21.44 369.75,-23 505.34,-120.12 141.7,-101.79 144.76,-320.49 144.76,-320.49l0 -609.31c217.24,-48.84 367.45,-160.09 435.71,-323.83 85.75,-205.85 21.09,-448.02 -157.24,-588.92z"/>
  <path class="fil0" d="M3201 10927.36c-1073.54,0.09 -2313.46,-180.67 -3695.01,-604.07 -2074.91,-635.88 -3743.16,-526.74 -4777.28,-323.2 -1119.43,220.3 -1755.82,594.94 -1762.14,598.69l-22.15 -37.16c6.34,-3.81 649.21,-382.25 1775.94,-604 1039.06,-204.45 2714.86,-314.16 4798.33,324.28 3965.32,1215.22 6758.04,426.85 7766.71,-893.59l34.42 26.29c-665,870.44 -2095.76,1512.69 -4118.82,1512.76z"/>
  <path class="fil0" d="M-7031.72 10551.28l-25.58 -34.94c6.36,-4.65 649.25,-469.45 1776.15,-776.3 1039.31,-283.01 2715.68,-486.29 4799.84,152.4 1822.17,558.4 3558.73,702.38 5022.02,416.23 1209.33,-236.47 2209.72,-773.74 2744.69,-1474.02l34.42 26.27c-541.33,708.58 -1551.21,1251.76 -2770.79,1490.24 -1470.19,287.44 -3214.01,143.13 -5043.04,-417.33 -2073.16,-635.33 -3740.21,-433.68 -4773.66,-152.59 -1119.88,304.58 -1757.75,765.42 -1764.05,770.04z"/>
  <path class="fil0" d="M-7030.42 10480.13l-28.18 -32.82c6.36,-5.47 649.15,-550.59 1776.12,-936.67 1039.61,-356.14 2716.4,-646.59 4801.17,-7.72 1804.23,552.92 3540.58,663.46 5021.24,319.79 1193.88,-277.17 2194.59,-849.74 2745.47,-1570.91l34.42 26.28c-556.93,729.03 -1566.56,1307.38 -2770.1,1586.77 -1488.05,345.45 -3232.16,234.68 -5043.73,-320.55 -2073.65,-635.43 -3740.93,-346.78 -4774.43,7.28 -1119.22,383.44 -1755.66,923.16 -1761.98,928.55z"/>
  <path class="fil0" d="M-7029.32 10413.41l-30.38 -30.79c6.36,-6.3 649.01,-632.7 1775.96,-1099.09 1039.84,-430.33 2716.97,-809.19 4802.43,-170.1 1784.14,546.77 3520.16,613.85 5020.35,194.14 1172.04,-327.92 2173.03,-946.43 2746.36,-1696.88l34.42 26.26c-578.93,757.78 -1588.25,1381.9 -2769.13,1712.31 -1508.27,422.01 -3252.66,354.77 -5044.7,-194.44 -2072.15,-635.01 -3738.42,-259.21 -4771.39,167.96 -1119.74,463.01 -1757.59,1084.42 -1763.92,1090.63z"/>
  <path class="fil0" d="M-7028.36 10364.7l-32.3 -28.84c6.36,-7.1 648.81,-719.3 1775.7,-1270.39 1040.04,-508.64 2717.71,-980.78 4803.65,-341.53 1767.08,541.53 3502.7,565.29 5019.41,68.64 1131.2,-370.41 2158.22,-1051.91 2747.3,-1823.03l34.42 26.26c-594.24,777.82 -1629.04,1464.88 -2768.24,1837.9 -1525.24,499.44 -3270.03,475.8 -5045.59,-68.38 -2072.47,-635.11 -3738.93,-166.15 -4771.95,339 -1119.32,547.43 -1756.08,1253.29 -1762.4,1260.37z"/>
  <path class="fil0" d="M-3093.24 8708.35c42.14,79.11 -20.1,194.67 -139.1,258.1 -119.02,63.56 -249.73,50.87 -291.96,-28.31 -42.18,-79.09 20.11,-194.69 139.16,-258.14 118.99,-63.47 249.67,-50.78 291.9,28.35z"/>
  <polygon class="fil0" points="-3124.06,8766.83 -3080.06,8766.83 -3080.06,7645.87 -3124.06,7645.87 "/>
  <path class="fil0" d="M-1015.22 9364.5c-15.47,56.34 -106.04,80.65 -202.34,54.2 -96.34,-26.32 -161.91,-93.36 -146.49,-149.78 15.47,-56.34 106.01,-80.55 202.35,-54.23 96.3,26.43 161.95,93.43 146.48,149.81zm-174.13 -217.41c-141.03,-0.28 -255.4,75.56 -255.6,169.25 -0.12,93.8 114.08,169.88 255,170.09 140.99,0.26 255.4,-75.57 255.56,-169.26 0.12,-93.73 -113.96,-169.81 -254.96,-170.08z"/>
  <path class="fil0" d="M711.31 8472.26c-63.91,-35.96 -99.63,-70.96 -119.93,-98.7 -17.17,-22.03 -30.58,-46.49 -37.55,-74.64l-23.96 0 0 1132.3c-64.02,-49.78 -180.33,-49.03 -288.12,8.5 -131.3,70.01 -199.95,197.52 -153.46,284.75 46.51,87.33 190.77,101.29 321.97,31.19 101.51,-54 165.33,-142.41 167.68,-220.15l0.32 0 0 -1051.17c57.25,72.72 197.19,111.65 245.34,192.93 50.47,85.32 18.67,213.22 18.67,213.22 108.52,-263.92 -9.82,-350.11 -130.96,-418.23z"/>
  <path class="fil1 str0" d="M-2303.76 9762.53l0 39.56c-11.75,148.34 -38.32,276.9 -79.73,385.68 -42.03,108.16 -91.48,199.63 -148.34,273.8 -57.48,74.17 -121.14,134.12 -191.6,179.24 -69.84,45.74 -141.54,80.35 -213.85,103.22 -166.88,56.86 -351.69,74.17 -553.18,51.3 -160.08,-22.87 -305.32,-82.82 -436.35,-179.86 -131.65,-97.04 -234.87,-222.5 -310.89,-376.4 -76.03,-154.52 -118.06,-335 -125.47,-542.05 -8.04,-207.67 33.99,-432.65 125.47,-676.17 90.85,-247.23 191.6,-450.57 302.23,-610.65 110.02,-159.46 222.51,-289.26 336.85,-388.15 18.54,-18.54 48.21,-45.12 88.38,-79.73 39.56,-34 84.68,-68.61 134.13,-102.6 49.44,-33.99 98.89,-65.52 148.33,-93.95 49.45,-28.43 92.71,-45.12 131.03,-48.83 129.18,-18.54 252.18,-21.63 367.76,-8.65 116.19,13.6 225.59,56.25 328.19,128.56 26.58,15.45 47.59,36.47 63.04,63.04 14.84,22.87 27.2,53.16 37.09,90.86 9.27,38.32 12.36,85.91 8.03,142.77 0,15.46 -1.85,43.89 -5.56,85.92 -3.71,41.41 -14.83,89 -33.99,142.15 -7.42,26.58 -17.31,53.77 -28.44,80.35 -11.74,26.58 -22.86,55.01 -34.61,85.29 -3.71,7.42 -9.27,15.46 -16.68,22.87 -8.04,7.42 -13.6,14.22 -17.31,19.78 -3.71,6.18 -9.89,10.51 -17.31,14.22 -79.73,30.9 -147.1,46.97 -202.72,48.82 -55.01,1.86 -99.51,-4.94 -133.51,-19.77 -42.03,-15.46 -76.64,-38.32 -103.21,-68.61 -7.42,0 -11.13,-3.71 -11.13,-11.74 -7.42,-7.42 -3.71,-18.54 11.13,-34 8.03,-7.41 16.68,-9.27 25.95,-5.56 9.28,3.71 27.82,-6.18 54.39,-28.43 37.71,-45.74 74.79,-92.71 111.26,-140.3 35.85,-47.59 63.66,-93.95 82.2,-139.69 19.16,-45.73 29.67,-89 31.52,-131.03 1.86,-42.03 -12.36,-79.73 -42.64,-114.34 -60.58,-64.28 -153.29,-74.17 -276.9,-28.43 -123.61,45.74 -251.55,134.12 -385.06,265.15 -132.88,131.65 -258.35,301 -376.4,508.05 -118.05,207.06 -199.64,438.22 -245.38,692.86 -19.16,98.89 -33.37,216.33 -42.64,351.06 -9.27,135.36 0,264.54 28.43,388.15 28.43,123.62 81.58,231.16 159.46,322.02 78.5,91.47 197.16,142.77 356.63,154.51 133.5,11.13 242.9,-14.21 328.19,-77.25 85.91,-63.05 155.14,-139.07 208.29,-228.07 53.16,-89.62 92.09,-181.71 116.82,-276.9 24.72,-95.18 41.41,-169.35 48.82,-222.5 7.42,-49.45 11.13,-74.17 11.13,-74.17 8.03,-72.32 9.89,-112.49 5.56,-119.91 0,-22.87 -4.32,-40.79 -14.21,-53.77 -9.27,-13.6 -17.93,-24.1 -25.34,-31.52 0,0 -1.86,-3.71 -5.57,-11.74 0,-7.42 1.86,-11.13 5.57,-11.13l5.56 0c64.9,-19.16 124.85,-17.92 179.86,2.47 55,21.02 99.51,46.98 134.12,77.26 19.16,19.16 35.23,35.85 48.21,51.3 13.59,15.45 24.1,30.29 31.52,45.74 11.12,15.45 19.16,30.28 22.87,45.74l0 68.6 0 5.56zm62.42 668.76c-14.83,-125.47 -7.41,-287.41 22.87,-485.19 30.29,-197.78 69.23,-401.13 116.82,-610.65 47.59,-208.91 96.42,-406.69 145.86,-593.35 49.45,-186.66 89,-328.81 119.91,-427.7 11.12,-38.32 12.98,-61.81 5.56,-71.7 -7.42,-9.27 -7.42,-23.49 0,-42.65 3.71,-14.83 14.83,-22.25 33.99,-22.25 8.04,0 13.6,0.62 17.31,1.86 3.71,1.23 7.42,1.85 11.13,1.85 4.32,0 8.03,2.47 11.74,7.42 33.99,11.12 81.58,30.28 142.77,56.86 60.57,26.58 115.58,61.19 165.03,102.6 8.03,4.33 13.6,9.89 17.3,17.31 7.42,19.16 9.28,40.17 5.57,63.04 -11.13,37.7 -29.05,99.51 -53.78,185.42 -24.72,85.29 -53.77,184.19 -85.91,296.67 -32.14,111.88 -66.75,231.78 -102.6,359.72 -36.46,127.32 -69.22,249.7 -100.12,367.75 87.76,-182.33 179.24,-336.85 273.8,-462.31 95.18,-125.47 169.35,-218.8 222.51,-279.37 0,0 2.47,-1.86 6.18,-5.56 11.12,-11.75 21.01,-22.87 28.43,-34.62 15.45,-14.83 33.99,-22.86 56.86,-22.86 11.74,0 22.87,2.47 34.61,6.18 34,14.83 74.79,33.99 122.38,56.86 47.59,22.87 92.09,51.3 134.12,85.29 3.71,4.33 10.51,11.75 19.78,22.87 9.89,11.74 10.51,30.9 3.09,57.48l-5.56 5.56 0 5.57c-76.03,201.49 -130.42,383.2 -162.56,545.13 -32.75,161.32 -54.39,297.3 -66.13,407.93 -14.83,132.89 -16.69,249.08 -5.56,347.97 98.89,-42.02 176.15,-104.45 231.16,-188.51 55.01,-83.44 97.65,-167.49 128.56,-250.93 33.99,-98.89 55,-199.64 62.42,-302.24 30.29,19.16 54.39,37.7 71.7,56.86 16.68,19.16 29.05,38.32 37.08,56.86 11.13,19.17 18.54,38.33 22.87,57.49 -22.87,140.3 -59.95,256.49 -111.25,347.97 -51.92,91.47 -103.84,163.17 -156.99,216.94 -64.9,64.28 -131.65,113.73 -199.64,148.34 -125.47,-30.91 -230.54,-70.46 -313.98,-119.91 -83.44,-49.44 -132.88,-112.49 -148.34,-188.51 -26.57,-121.76 -24.72,-268.86 5.57,-441.92 30.28,-173.06 66.75,-337.46 108.78,-493.84 -91.48,106.93 -170.59,229.31 -237.34,368.37 -66.14,138.45 -122.38,271.95 -168.12,399.28 -45.73,127.32 -79.73,236.72 -102.6,328.19 -22.86,90.86 -35.84,142.16 -40.17,153.9 0,19.16 -7.42,28.43 -22.87,28.43 -26.58,-7.41 -66.13,-16.07 -119.29,-25.96 -53.77,-9.27 -108.78,-29.05 -165.64,-59.33 -11.74,-4.33 -17.31,-11.74 -17.31,-22.87l0 -11.74zm1557.54 -12.98c-11.12,-7.42 -19.77,-18.55 -25.34,-34 -5.56,-15.45 -12.36,-28.43 -19.78,-40.17 -8.03,-14.84 -11.74,-30.29 -11.74,-45.12 -30.28,-194.07 -30.28,-367.13 0,-519.18 30.29,-152.66 61.19,-266.39 91.48,-342.41 30.28,-64.9 58.09,-116.2 82.82,-154.52 24.72,-37.7 44.5,-66.13 59.95,-85.29 7.42,-3.71 12.98,-7.42 16.69,-11.13 3.71,-4.32 8.03,-8.03 11.74,-11.74l16.69 -17.31c4.33,-3.7 11.74,-7.41 22.87,-11.12 22.87,-7.42 43.88,-11.74 63.04,-11.74 83.44,8.03 143.39,29.66 179.86,66.13 35.85,35.85 59.95,69.22 71.08,99.51l0 22.87c-7.42,22.87 -19.16,40.17 -34,51.3 -38.32,30.28 -69.84,59.95 -94.56,88.38 -24.72,28.43 -46.36,58.1 -65.52,88.38l-5.56 6.19c-33.99,64.27 -61.19,134.73 -79.73,210.76 -19.16,76.02 -32.76,152.04 -40.17,228.07 -15.46,110.63 -17.93,204.58 -8.66,282.45 9.89,77.88 29.67,119.29 59.95,123 22.87,3.71 52.54,-1.24 88.39,-14.22 36.46,-13.59 75.4,-37.08 116.81,-71.69 42.03,-34 84.68,-78.5 128.56,-134.12 43.89,-55.01 82.82,-122.38 116.82,-202.11 8.03,-19.16 15.45,-38.94 22.87,-59.96 8.03,-21.01 15.45,-43.26 22.87,-65.51 53.15,-197.78 74.16,-348.59 63.04,-451.19 -11.75,-102.6 -21.02,-157.61 -28.43,-165.03 -15.45,-49.44 -40.18,-95.18 -74.17,-137.21 -34.61,-42.03 -87.77,-68.6 -160.08,-79.73 -3.71,7.42 -11.13,12.98 -22.87,17.31 -7.42,3.71 -16.69,7.41 -28.43,11.12 -11.13,3.71 -21.02,1.86 -28.43,-5.56 -19.16,-8.04 -25.96,-33.38 -19.78,-77.26 5.56,-43.88 29.05,-86.53 71.08,-128.56 53.15,-53.15 116.19,-83.44 188.51,-90.85 72.31,-8.04 148.34,11.12 228.07,56.86 19.16,15.45 43.88,37.08 74.16,65.51 30.29,28.43 58.72,67.37 85.3,116.82 26.58,49.44 48.83,110.63 65.51,182.95 17.31,72.31 24.11,157.61 20.4,256.5 -19.16,178.62 -55.01,333.75 -108.78,465.4 -53.15,131.03 -111.87,242.29 -176.77,333.76 -64.28,90.86 -130.41,165.03 -196.54,222.51 -66.76,56.86 -123,98.89 -168.74,125.46 -37.7,22.87 -77.87,34 -119.29,34l-57.48 0c-110.01,-19.16 -195.92,-47.59 -256.49,-85.3 -61.19,-38.32 -106.31,-72.31 -137.22,-103.21zm2653.38 -1437.02c3.71,3.71 10.51,11.13 19.78,22.87 9.89,11.13 10.51,30.29 3.09,57.48 -3.71,0 -5.56,1.86 -5.56,5.57l0 5.56c-38.32,99.51 -69.84,194.69 -94.57,286.17 -24.72,91.47 -46.35,174.91 -65.51,250.93 -3.71,19.16 -12.98,32.76 -28.43,40.18 -7.42,3.7 -13.6,3.7 -17.31,0 -87.15,-15.46 -154.52,-33.38 -202.11,-54.39 -47.59,-21.02 -84.67,-38.94 -111.25,-54.39 -19.16,-7.42 -29.05,-22.25 -29.05,-45.12l0 -34.62 51.92 -187.89c-84.06,98.89 -158.23,212.62 -222.51,341.79 -64.9,129.8 -119.9,255.27 -165.64,377.03 -45.74,121.76 -80.97,229.92 -105.69,325.1 -24.72,95.18 -40.79,157.61 -48.21,188.51l0 16.69c0,8.04 -1.85,13.6 -6.18,17.31 -7.42,7.41 -14.83,11.12 -22.87,11.12 -26.58,-7.41 -65.51,-16.07 -116.81,-25.96 -51.3,-9.27 -107.55,-29.05 -168.12,-59.33 -11.74,-4.33 -17.31,-11.74 -17.31,-22.87l0 -11.74c-7.41,-83.44 -6.18,-184.19 3.09,-302.24 9.28,-118.05 25.35,-242.9 48.21,-373.93 22.87,-131.03 49.45,-266.39 80.35,-404.84 30.29,-139.06 60.57,-271.33 90.86,-396.8 3.71,-19.16 3.09,-32.14 -2.47,-40.17 -6.18,-7.42 -6.8,-21.02 -3.09,-39.56 3.71,-11.74 15.45,-17.31 33.99,-17.31l6.18 0 16.69 0 6.18 0c3.71,3.71 7.42,5.57 11.13,5.57l5.56 0c34.61,11.74 80.96,29.66 139.68,54.39 59.34,24.72 111.25,58.1 156.99,100.12l5.56 5.57c4.33,0 9.89,4.94 17.31,14.21 7.42,9.27 9.89,23.49 5.56,42.65 0,7.42 -1.85,13.6 -5.56,17.31l0 11.12c-7.42,22.87 -11.13,36.47 -11.13,40.18 -19.16,76.02 -40.17,153.89 -63.04,234.24 -22.87,79.73 -43.88,161.32 -62.42,245.38 87.14,-179.24 176.76,-330.05 267.62,-453.67 91.48,-124.23 163.79,-216.32 216.94,-276.89 3.71,0 5.57,-1.86 5.57,-6.18 11.74,-3.71 22.86,-14.84 34.61,-34 15.45,-14.83 33.99,-22.25 56.86,-22.25 11.74,0 21.01,1.24 28.43,3.71 38.32,15.45 80.97,34.61 128.56,57.48 47.59,22.87 90.24,51.3 128.56,85.91l5.56 0zm1517.99 674.32c53.15,30.9 89,66.75 108.16,108.78 11.74,18.54 19.16,37.7 22.87,56.86 -22.87,140.92 -59.96,257.74 -111.26,351.07 -51.3,92.71 -103.83,166.26 -156.99,219.41 -64.28,64.9 -131.03,114.34 -199.63,148.34 -125.47,-30.29 -231.16,-71.08 -316.45,-122.38 -85.92,-51.92 -134.13,-113.73 -145.87,-185.42 -3.71,-15.45 -5.56,-40.18 -5.56,-74.17 -41.41,87.15 -79.73,157.61 -113.73,210.76 -34.61,53.16 -64.89,93.33 -91.47,119.91 -30.29,33.99 -58.72,55.01 -85.91,62.42 -71.7,-18.54 -131.03,-43.26 -176.77,-73.55 -45.74,-30.9 -83.44,-63.04 -113.73,-97.04 -34.61,-38.32 -61.18,-80.34 -80.34,-126.08 -26.58,-182.33 -34,-350.45 -22.26,-504.35 11.13,-154.51 30.91,-291.11 59.34,-411.01 29.05,-119.91 59.95,-221.27 94.56,-305.33 34,-83.44 60.58,-142.77 79.74,-176.77 3.7,-7.41 9.27,-15.45 17.3,-22.87 18.54,-19.16 37.7,-32.14 56.86,-40.17 45.74,-14.83 90.24,-16.69 134.12,-5.56 43.89,11.74 82.83,26.57 116.82,45.73 42.03,19.16 74.17,42.03 97.04,68.61 22.87,26.58 42.03,49.45 56.86,68.61 8.03,14.83 4.33,26.57 -11.13,33.99 -7.41,3.71 -15.45,3.71 -22.86,0 -11.13,0 -21.02,3.71 -28.44,11.12l-5.56 6.19c-84.06,121.75 -144.01,256.49 -179.86,404.83 -36.46,148.34 -61.8,289.26 -77.26,422.14 -14.83,152.05 -18.54,308.42 -11.12,467.88 42.03,-15.45 86.53,-69.22 134.12,-162.55 47.59,-93.33 92.09,-199.02 134.12,-316.45 41.41,-118.05 79.73,-236.72 113.73,-356.63 34.61,-119.9 61.19,-216.32 79.73,-288.02 11.74,-45.74 22.25,-87.77 31.52,-125.47 9.89,-38.32 18.54,-72.31 25.96,-103.22l0 -5.56c3.71,-7.41 6.8,-17.92 8.65,-31.52 1.86,-12.98 6.18,-27.19 14.22,-42.65 0,-3.7 3.71,-9.27 11.12,-17.3 3.71,-11.13 17.31,-16.69 40.18,-16.69 33.99,11.12 80.96,29.05 139.68,53.77 58.72,24.72 111.25,58.1 156.99,100.13l5.56 0c3.71,3.71 10.51,12.36 19.78,25.96 9.89,12.98 10.51,30.9 3.09,53.77 -3.71,3.71 -5.56,7.42 -5.56,11.74 -53.16,178.63 -94.57,346.12 -123,501.88 -28.43,155.75 -50.06,292.96 -65.51,411.01 -15.45,136.6 -26.58,263.92 -34,381.97 98.89,-42.03 175.54,-104.45 231.16,-188.51 55.01,-83.44 97.66,-165.03 127.94,-245.38 34.61,-94.56 55.63,-195.31 63.05,-302.23zm1112.52 233.01c-26.58,90.86 -61.81,177.39 -105.69,258.97 -43.27,81.59 -101.37,153.9 -173.68,216.33 -72.31,63.04 -158.84,111.25 -259.59,145.24 -100.75,34.62 -220.03,49.45 -356.63,45.74 -106.3,-3.71 -189.13,-25.96 -248.46,-65.51 -58.72,-40.18 -98.89,-91.48 -119.29,-154.52 -21.01,-62.43 -26.57,-135.98 -17.3,-219.42 9.27,-84.05 29.66,-171.2 59.95,-262.68 3.71,-3.71 5.56,-9.27 5.56,-17.3l63.04 -148.34c7.42,-18.54 9.89,-32.14 8.04,-39.56 -1.85,-7.41 1.24,-21.01 8.65,-40.17 3.71,-7.42 15.45,-11.13 34.61,-11.13l5.57 5.57 22.87 0c7.41,7.41 11.12,11.12 11.12,11.12l5.56 0c30.91,19.16 80.35,46.98 148.34,82.82 68.61,36.47 119.91,79.12 154.52,128.56l0 5.56c3.71,0 7.41,5.57 11.12,17.31 3.71,11.13 1.86,24.72 -5.56,40.17 0,7.42 -1.85,12.98 -5.56,16.69l-6.18 11.75c-14.84,22.86 -22.25,35.84 -22.25,39.55l-22.87 28.43c-22.87,49.45 -43.27,100.13 -59.95,151.43 -17.31,51.3 -28.44,97.66 -34.62,139.68 -5.56,42.03 -3.7,76.03 6.18,102.6 9.28,26.58 27.2,40.18 53.78,40.18 79.73,0 149.57,-19.78 208.29,-59.95 59.33,-39.56 109.39,-89.62 151.42,-150.81 41.41,-60.57 76.03,-124.85 102.6,-193.46 26.58,-67.99 47.59,-131.03 62.43,-187.89 22.87,-94.57 15.45,-163.79 -22.25,-207.67 -38.32,-43.27 -92.71,-73.55 -163.17,-90.86 -69.85,-17.31 -152.67,-23.49 -247.85,-19.78 -95.18,3.71 -190.36,5.56 -285.55,5.56 -14.83,0 -22.87,-7.41 -22.87,-22.86l11.75 -5.57c11.12,-61.19 16.07,-118.05 14.21,-171.2 -1.85,-53.77 -6.8,-97.04 -14.21,-131.65 -3.71,-7.42 -1.24,-14.83 8.65,-22.87 9.27,-7.42 14.22,-12.98 14.22,-16.69 106.3,-99.51 229.92,-176.15 370.84,-231.77 140.92,-55.01 286.78,-93.95 439.45,-116.82 76.02,3.71 140.3,51.3 193.45,142.78 8.04,27.19 11.74,55.62 11.74,85.91 0,26.57 -5.56,55.62 -17.3,85.91 -11.13,30.9 -34,63.04 -68.61,97.04l-22.25 11.74c-19.16,7.42 -36.46,9.27 -51.92,5.56 -3.7,0 -5.56,-7.42 -5.56,-22.87 0,-7.41 1.86,-14.83 5.56,-22.87 0,-7.41 -9.88,-21.01 -30.9,-40.17 -21.01,-18.54 -53.15,-33.99 -97.04,-45.74 -43.88,-11.12 -100.74,-11.12 -171.2,0 -70.46,11.75 -155.14,45.74 -254.03,103.22 68.61,0 150.19,12.98 245.38,39.56 95.18,26.57 182.33,67.98 262.68,122.99 79.73,55.01 142.15,126.09 187.89,213.24 45.74,87.14 53.15,193.45 22.87,318.92z"/>
  <path class="fil2" d="M-2303.76 9762.53l0 39.56c-11.75,148.34 -38.32,276.9 -79.73,385.68 -42.03,108.16 -91.48,199.63 -148.34,273.8 -57.48,74.17 -121.14,134.12 -191.6,179.24 -69.84,45.74 -141.54,80.35 -213.85,103.22 -166.88,56.86 -351.69,74.17 -553.18,51.3 -160.08,-22.87 -305.32,-82.82 -436.35,-179.86 -131.65,-97.04 -234.87,-222.5 -310.89,-376.4 -76.03,-154.52 -118.06,-335 -125.47,-542.05 -8.04,-207.67 33.99,-432.65 125.47,-676.17 90.85,-247.23 191.6,-450.57 302.23,-610.65 110.02,-159.46 222.51,-289.26 336.85,-388.15 18.54,-18.54 48.21,-45.12 88.38,-79.73 39.56,-34 84.68,-68.61 134.13,-102.6 49.44,-33.99 98.89,-65.52 148.33,-93.95 49.45,-28.43 92.71,-45.12 131.03,-48.83 129.18,-18.54 252.18,-21.63 367.76,-8.65 116.19,13.6 225.59,56.25 328.19,128.56 26.58,15.45 47.59,36.47 63.04,63.04 14.84,22.87 27.2,53.16 37.09,90.86 9.27,38.32 12.36,85.91 8.03,142.77 0,15.46 -1.85,43.89 -5.56,85.92 -3.71,41.41 -14.83,89 -33.99,142.15 -7.42,26.58 -17.31,53.77 -28.44,80.35 -11.74,26.58 -22.86,55.01 -34.61,85.29 -3.71,7.42 -9.27,15.46 -16.68,22.87 -8.04,7.42 -13.6,14.22 -17.31,19.78 -3.71,6.18 -9.89,10.51 -17.31,14.22 -79.73,30.9 -147.1,46.97 -202.72,48.82 -55.01,1.86 -99.51,-4.94 -133.51,-19.77 -42.03,-15.46 -76.64,-38.32 -103.21,-68.61 -7.42,0 -11.13,-3.71 -11.13,-11.74 -7.42,-7.42 -3.71,-18.54 11.13,-34 8.03,-7.41 16.68,-9.27 25.95,-5.56 9.28,3.71 27.82,-6.18 54.39,-28.43 37.71,-45.74 74.79,-92.71 111.26,-140.3 35.85,-47.59 63.66,-93.95 82.2,-139.69 19.16,-45.73 29.67,-89 31.52,-131.03 1.86,-42.03 -12.36,-79.73 -42.64,-114.34 -60.58,-64.28 -153.29,-74.17 -276.9,-28.43 -123.61,45.74 -251.55,134.12 -385.06,265.15 -132.88,131.65 -258.35,301 -376.4,508.05 -118.05,207.06 -199.64,438.22 -245.38,692.86 -19.16,98.89 -33.37,216.33 -42.64,351.06 -9.27,135.36 0,264.54 28.43,388.15 28.43,123.62 81.58,231.16 159.46,322.02 78.5,91.47 197.16,142.77 356.63,154.51 133.5,11.13 242.9,-14.21 328.19,-77.25 85.91,-63.05 155.14,-139.07 208.29,-228.07 53.16,-89.62 92.09,-181.71 116.82,-276.9 24.72,-95.18 41.41,-169.35 48.82,-222.5 7.42,-49.45 11.13,-74.17 11.13,-74.17 8.03,-72.32 9.89,-112.49 5.56,-119.91 0,-22.87 -4.32,-40.79 -14.21,-53.77 -9.27,-13.6 -17.93,-24.1 -25.34,-31.52 0,0 -1.86,-3.71 -5.57,-11.74 0,-7.42 1.86,-11.13 5.57,-11.13l5.56 0c64.9,-19.16 124.85,-17.92 179.86,2.47 55,21.02 99.51,46.98 134.12,77.26 19.16,19.16 35.23,35.85 48.21,51.3 13.59,15.45 24.1,30.29 31.52,45.74 11.12,15.45 19.16,30.28 22.87,45.74l0 68.6 0 5.56zm62.42 668.76c-14.83,-125.47 -7.41,-287.41 22.87,-485.19 30.29,-197.78 69.23,-401.13 116.82,-610.65 47.59,-208.91 96.42,-406.69 145.86,-593.35 49.45,-186.66 89,-328.81 119.91,-427.7 11.12,-38.32 12.98,-61.81 5.56,-71.7 -7.42,-9.27 -7.42,-23.49 0,-42.65 3.71,-14.83 14.83,-22.25 33.99,-22.25 8.04,0 13.6,0.62 17.31,1.86 3.71,1.23 7.42,1.85 11.13,1.85 4.32,0 8.03,2.47 11.74,7.42 33.99,11.12 81.58,30.28 142.77,56.86 60.57,26.58 115.58,61.19 165.03,102.6 8.03,4.33 13.6,9.89 17.3,17.31 7.42,19.16 9.28,40.17 5.57,63.04 -11.13,37.7 -29.05,99.51 -53.78,185.42 -24.72,85.29 -53.77,184.19 -85.91,296.67 -32.14,111.88 -66.75,231.78 -102.6,359.72 -36.46,127.32 -69.22,249.7 -100.12,367.75 87.76,-182.33 179.24,-336.85 273.8,-462.31 95.18,-125.47 169.35,-218.8 222.51,-279.37 0,0 2.47,-1.86 6.18,-5.56 11.12,-11.75 21.01,-22.87 28.43,-34.62 15.45,-14.83 33.99,-22.86 56.86,-22.86 11.74,0 22.87,2.47 34.61,6.18 34,14.83 74.79,33.99 122.38,56.86 47.59,22.87 92.09,51.3 134.12,85.29 3.71,4.33 10.51,11.75 19.78,22.87 9.89,11.74 10.51,30.9 3.09,57.48l-5.56 5.56 0 5.57c-76.03,201.49 -130.42,383.2 -162.56,545.13 -32.75,161.32 -54.39,297.3 -66.13,407.93 -14.83,132.89 -16.69,249.08 -5.56,347.97 98.89,-42.02 176.15,-104.45 231.16,-188.51 55.01,-83.44 97.65,-167.49 128.56,-250.93 33.99,-98.89 55,-199.64 62.42,-302.24 30.29,19.16 54.39,37.7 71.7,56.86 16.68,19.16 29.05,38.32 37.08,56.86 11.13,19.17 18.54,38.33 22.87,57.49 -22.87,140.3 -59.95,256.49 -111.25,347.97 -51.92,91.47 -103.84,163.17 -156.99,216.94 -64.9,64.28 -131.65,113.73 -199.64,148.34 -125.47,-30.91 -230.54,-70.46 -313.98,-119.91 -83.44,-49.44 -132.88,-112.49 -148.34,-188.51 -26.57,-121.76 -24.72,-268.86 5.57,-441.92 30.28,-173.06 66.75,-337.46 108.78,-493.84 -91.48,106.93 -170.59,229.31 -237.34,368.37 -66.14,138.45 -122.38,271.95 -168.12,399.28 -45.73,127.32 -79.73,236.72 -102.6,328.19 -22.86,90.86 -35.84,142.16 -40.17,153.9 0,19.16 -7.42,28.43 -22.87,28.43 -26.58,-7.41 -66.13,-16.07 -119.29,-25.96 -53.77,-9.27 -108.78,-29.05 -165.64,-59.33 -11.74,-4.33 -17.31,-11.74 -17.31,-22.87l0 -11.74zm1557.54 -12.98c-11.12,-7.42 -19.77,-18.55 -25.34,-34 -5.56,-15.45 -12.36,-28.43 -19.78,-40.17 -8.03,-14.84 -11.74,-30.29 -11.74,-45.12 -30.28,-194.07 -30.28,-367.13 0,-519.18 30.29,-152.66 61.19,-266.39 91.48,-342.41 30.28,-64.9 58.09,-116.2 82.82,-154.52 24.72,-37.7 44.5,-66.13 59.95,-85.29 7.42,-3.71 12.98,-7.42 16.69,-11.13 3.71,-4.32 8.03,-8.03 11.74,-11.74l16.69 -17.31c4.33,-3.7 11.74,-7.41 22.87,-11.12 22.87,-7.42 43.88,-11.74 63.04,-11.74 83.44,8.03 143.39,29.66 179.86,66.13 35.85,35.85 59.95,69.22 71.08,99.51l0 22.87c-7.42,22.87 -19.16,40.17 -34,51.3 -38.32,30.28 -69.84,59.95 -94.56,88.38 -24.72,28.43 -46.36,58.1 -65.52,88.38l-5.56 6.19c-33.99,64.27 -61.19,134.73 -79.73,210.76 -19.16,76.02 -32.76,152.04 -40.17,228.07 -15.46,110.63 -17.93,204.58 -8.66,282.45 9.89,77.88 29.67,119.29 59.95,123 22.87,3.71 52.54,-1.24 88.39,-14.22 36.46,-13.59 75.4,-37.08 116.81,-71.69 42.03,-34 84.68,-78.5 128.56,-134.12 43.89,-55.01 82.82,-122.38 116.82,-202.11 8.03,-19.16 15.45,-38.94 22.87,-59.96 8.03,-21.01 15.45,-43.26 22.87,-65.51 53.15,-197.78 74.16,-348.59 63.04,-451.19 -11.75,-102.6 -21.02,-157.61 -28.43,-165.03 -15.45,-49.44 -40.18,-95.18 -74.17,-137.21 -34.61,-42.03 -87.77,-68.6 -160.08,-79.73 -3.71,7.42 -11.13,12.98 -22.87,17.31 -7.42,3.71 -16.69,7.41 -28.43,11.12 -11.13,3.71 -21.02,1.86 -28.43,-5.56 -19.16,-8.04 -25.96,-33.38 -19.78,-77.26 5.56,-43.88 29.05,-86.53 71.08,-128.56 53.15,-53.15 116.19,-83.44 188.51,-90.85 72.31,-8.04 148.34,11.12 228.07,56.86 19.16,15.45 43.88,37.08 74.16,65.51 30.29,28.43 58.72,67.37 85.3,116.82 26.58,49.44 48.83,110.63 65.51,182.95 17.31,72.31 24.11,157.61 20.4,256.5 -19.16,178.62 -55.01,333.75 -108.78,465.4 -53.15,131.03 -111.87,242.29 -176.77,333.76 -64.28,90.86 -130.41,165.03 -196.54,222.51 -66.76,56.86 -123,98.89 -168.74,125.46 -37.7,22.87 -77.87,34 -119.29,34l-57.48 0c-110.01,-19.16 -195.92,-47.59 -256.49,-85.3 -61.19,-38.32 -106.31,-72.31 -137.22,-103.21zm2653.38 -1437.02c3.71,3.71 10.51,11.13 19.78,22.87 9.89,11.13 10.51,30.29 3.09,57.48 -3.71,0 -5.56,1.86 -5.56,5.57l0 5.56c-38.32,99.51 -69.84,194.69 -94.57,286.17 -24.72,91.47 -46.35,174.91 -65.51,250.93 -3.71,19.16 -12.98,32.76 -28.43,40.18 -7.42,3.7 -13.6,3.7 -17.31,0 -87.15,-15.46 -154.52,-33.38 -202.11,-54.39 -47.59,-21.02 -84.67,-38.94 -111.25,-54.39 -19.16,-7.42 -29.05,-22.25 -29.05,-45.12l0 -34.62 51.92 -187.89c-84.06,98.89 -158.23,212.62 -222.51,341.79 -64.9,129.8 -119.9,255.27 -165.64,377.03 -45.74,121.76 -80.97,229.92 -105.69,325.1 -24.72,95.18 -40.79,157.61 -48.21,188.51l0 16.69c0,8.04 -1.85,13.6 -6.18,17.31 -7.42,7.41 -14.83,11.12 -22.87,11.12 -26.58,-7.41 -65.51,-16.07 -116.81,-25.96 -51.3,-9.27 -107.55,-29.05 -168.12,-59.33 -11.74,-4.33 -17.31,-11.74 -17.31,-22.87l0 -11.74c-7.41,-83.44 -6.18,-184.19 3.09,-302.24 9.28,-118.05 25.35,-242.9 48.21,-373.93 22.87,-131.03 49.45,-266.39 80.35,-404.84 30.29,-139.06 60.57,-271.33 90.86,-396.8 3.71,-19.16 3.09,-32.14 -2.47,-40.17 -6.18,-7.42 -6.8,-21.02 -3.09,-39.56 3.71,-11.74 15.45,-17.31 33.99,-17.31l6.18 0 16.69 0 6.18 0c3.71,3.71 7.42,5.57 11.13,5.57l5.56 0c34.61,11.74 80.96,29.66 139.68,54.39 59.34,24.72 111.25,58.1 156.99,100.12l5.56 5.57c4.33,0 9.89,4.94 17.31,14.21 7.42,9.27 9.89,23.49 5.56,42.65 0,7.42 -1.85,13.6 -5.56,17.31l0 11.12c-7.42,22.87 -11.13,36.47 -11.13,40.18 -19.16,76.02 -40.17,153.89 -63.04,234.24 -22.87,79.73 -43.88,161.32 -62.42,245.38 87.14,-179.24 176.76,-330.05 267.62,-453.67 91.48,-124.23 163.79,-216.32 216.94,-276.89 3.71,0 5.57,-1.86 5.57,-6.18 11.74,-3.71 22.86,-14.84 34.61,-34 15.45,-14.83 33.99,-22.25 56.86,-22.25 11.74,0 21.01,1.24 28.43,3.71 38.32,15.45 80.97,34.61 128.56,57.48 47.59,22.87 90.24,51.3 128.56,85.91l5.56 0zm1517.99 674.32c53.15,30.9 89,66.75 108.16,108.78 11.74,18.54 19.16,37.7 22.87,56.86 -22.87,140.92 -59.96,257.74 -111.26,351.07 -51.3,92.71 -103.83,166.26 -156.99,219.41 -64.28,64.9 -131.03,114.34 -199.63,148.34 -125.47,-30.29 -231.16,-71.08 -316.45,-122.38 -85.92,-51.92 -134.13,-113.73 -145.87,-185.42 -3.71,-15.45 -5.56,-40.18 -5.56,-74.17 -41.41,87.15 -79.73,157.61 -113.73,210.76 -34.61,53.16 -64.89,93.33 -91.47,119.91 -30.29,33.99 -58.72,55.01 -85.91,62.42 -71.7,-18.54 -131.03,-43.26 -176.77,-73.55 -45.74,-30.9 -83.44,-63.04 -113.73,-97.04 -34.61,-38.32 -61.18,-80.34 -80.34,-126.08 -26.58,-182.33 -34,-350.45 -22.26,-504.35 11.13,-154.51 30.91,-291.11 59.34,-411.01 29.05,-119.91 59.95,-221.27 94.56,-305.33 34,-83.44 60.58,-142.77 79.74,-176.77 3.7,-7.41 9.27,-15.45 17.3,-22.87 18.54,-19.16 37.7,-32.14 56.86,-40.17 45.74,-14.83 90.24,-16.69 134.12,-5.56 43.89,11.74 82.83,26.57 116.82,45.73 42.03,19.16 74.17,42.03 97.04,68.61 22.87,26.58 42.03,49.45 56.86,68.61 8.03,14.83 4.33,26.57 -11.13,33.99 -7.41,3.71 -15.45,3.71 -22.86,0 -11.13,0 -21.02,3.71 -28.44,11.12l-5.56 6.19c-84.06,121.75 -144.01,256.49 -179.86,404.83 -36.46,148.34 -61.8,289.26 -77.26,422.14 -14.83,152.05 -18.54,308.42 -11.12,467.88 42.03,-15.45 86.53,-69.22 134.12,-162.55 47.59,-93.33 92.09,-199.02 134.12,-316.45 41.41,-118.05 79.73,-236.72 113.73,-356.63 34.61,-119.9 61.19,-216.32 79.73,-288.02 11.74,-45.74 22.25,-87.77 31.52,-125.47 9.89,-38.32 18.54,-72.31 25.96,-103.22l0 -5.56c3.71,-7.41 6.8,-17.92 8.65,-31.52 1.86,-12.98 6.18,-27.19 14.22,-42.65 0,-3.7 3.71,-9.27 11.12,-17.3 3.71,-11.13 17.31,-16.69 40.18,-16.69 33.99,11.12 80.96,29.05 139.68,53.77 58.72,24.72 111.25,58.1 156.99,100.13l5.56 0c3.71,3.71 10.51,12.36 19.78,25.96 9.89,12.98 10.51,30.9 3.09,53.77 -3.71,3.71 -5.56,7.42 -5.56,11.74 -53.16,178.63 -94.57,346.12 -123,501.88 -28.43,155.75 -50.06,292.96 -65.51,411.01 -15.45,136.6 -26.58,263.92 -34,381.97 98.89,-42.03 175.54,-104.45 231.16,-188.51 55.01,-83.44 97.66,-165.03 127.94,-245.38 34.61,-94.56 55.63,-195.31 63.05,-302.23zm1112.52 233.01c-26.58,90.86 -61.81,177.39 -105.69,258.97 -43.27,81.59 -101.37,153.9 -173.68,216.33 -72.31,63.04 -158.84,111.25 -259.59,145.24 -100.75,34.62 -220.03,49.45 -356.63,45.74 -106.3,-3.71 -189.13,-25.96 -248.46,-65.51 -58.72,-40.18 -98.89,-91.48 -119.29,-154.52 -21.01,-62.43 -26.57,-135.98 -17.3,-219.42 9.27,-84.05 29.66,-171.2 59.95,-262.68 3.71,-3.71 5.56,-9.27 5.56,-17.3l63.04 -148.34c7.42,-18.54 9.89,-32.14 8.04,-39.56 -1.85,-7.41 1.24,-21.01 8.65,-40.17 3.71,-7.42 15.45,-11.13 34.61,-11.13l5.57 5.57 22.87 0c7.41,7.41 11.12,11.12 11.12,11.12l5.56 0c30.91,19.16 80.35,46.98 148.34,82.82 68.61,36.47 119.91,79.12 154.52,128.56l0 5.56c3.71,0 7.41,5.57 11.12,17.31 3.71,11.13 1.86,24.72 -5.56,40.17 0,7.42 -1.85,12.98 -5.56,16.69l-6.18 11.75c-14.84,22.86 -22.25,35.84 -22.25,39.55l-22.87 28.43c-22.87,49.45 -43.27,100.13 -59.95,151.43 -17.31,51.3 -28.44,97.66 -34.62,139.68 -5.56,42.03 -3.7,76.03 6.18,102.6 9.28,26.58 27.2,40.18 53.78,40.18 79.73,0 149.57,-19.78 208.29,-59.95 59.33,-39.56 109.39,-89.62 151.42,-150.81 41.41,-60.57 76.03,-124.85 102.6,-193.46 26.58,-67.99 47.59,-131.03 62.43,-187.89 22.87,-94.57 15.45,-163.79 -22.25,-207.67 -38.32,-43.27 -92.71,-73.55 -163.17,-90.86 -69.85,-17.31 -152.67,-23.49 -247.85,-19.78 -95.18,3.71 -190.36,5.56 -285.55,5.56 -14.83,0 -22.87,-7.41 -22.87,-22.86l11.75 -5.57c11.12,-61.19 16.07,-118.05 14.21,-171.2 -1.85,-53.77 -6.8,-97.04 -14.21,-131.65 -3.71,-7.42 -1.24,-14.83 8.65,-22.87 9.27,-7.42 14.22,-12.98 14.22,-16.69 106.3,-99.51 229.92,-176.15 370.84,-231.77 140.92,-55.01 286.78,-93.95 439.45,-116.82 76.02,3.71 140.3,51.3 193.45,142.78 8.04,27.19 11.74,55.62 11.74,85.91 0,26.57 -5.56,55.62 -17.3,85.91 -11.13,30.9 -34,63.04 -68.61,97.04l-22.25 11.74c-19.16,7.42 -36.46,9.27 -51.92,5.56 -3.7,0 -5.56,-7.42 -5.56,-22.87 0,-7.41 1.86,-14.83 5.56,-22.87 0,-7.41 -9.88,-21.01 -30.9,-40.17 -21.01,-18.54 -53.15,-33.99 -97.04,-45.74 -43.88,-11.12 -100.74,-11.12 -171.2,0 -70.46,11.75 -155.14,45.74 -254.03,103.22 68.61,0 150.19,12.98 245.38,39.56 95.18,26.57 182.33,67.98 262.68,122.99 79.73,55.01 142.15,126.09 187.89,213.24 45.74,87.14 53.15,193.45 22.87,318.92z"/>
 </g>
</svg>
